<svg xmlns="http://www.w3.org/2000/svg" viewBox="0 0 800 600" width="800" height="600"><defs><linearGradient id="bg" x1="0" y1="0" x2="1" y2="1"><stop offset="0" stop-color="#1f5a2c"/><stop offset="1" stop-color="#0b2213"/></linearGradient><filter id="sh" x="-20%" y="-20%" width="140%" height="150%"><feDropShadow dx="0" dy="14" stdDeviation="14" flood-color="#06140a" flood-opacity=".35"/></filter></defs>
<rect width="800" height="600" fill="url(#bg)"/>
<circle cx="400" cy="290" r="190" fill="none" stroke="#d4f27a" stroke-width="3" stroke-dasharray="4 14" opacity=".6"/>
<g filter="url(#sh)"><circle cx="400" cy="290" r="150" fill="#fff8ec"/><circle cx="400" cy="290" r="132" fill="none" stroke="#0e2616" stroke-width="4"/></g>
<path d="M322 318c0-52 36-92 78-92s78 40 78 92c0 10-8 16-18 16H340c-10 0-18-6-18-16z" fill="#f4e3c3" stroke="#0e2616" stroke-width="5"/>
<path d="M400 226c-6 12-20 20-20 34M400 226c6 12 20 20 20 34M400 226v38M372 244c-10 14-14 30-14 44M428 244c10 14 14 30 14 44" stroke="#0e2616" stroke-width="4" fill="none" stroke-linecap="round"/>
<path d="M388 212c4-14 20-14 24 0" stroke="#7cc15a" stroke-width="6" fill="none" stroke-linecap="round"/>
<path d="M370 196c8-10 8-22 0-32M430 196c-8-10-8-22 0-32" stroke="#7cc15a" stroke-width="4" fill="none" stroke-linecap="round" opacity=".8"/>
<text x="400" y="376" font-family="Oswald, 'Arial Narrow', Arial, sans-serif" font-size="30" fill="#0e2616" font-weight="700" text-anchor="middle">MOMO HOUSE</text>
<text x="400" y="402" font-family="Outfit, 'Segoe UI', Arial, sans-serif" font-size="13" fill="#3f8f27" font-weight="600" text-anchor="middle">SINCE 2024 · THAMEL</text>
<rect x="610" y="470" width="120" height="70" rx="12" fill="#163822"/><circle cx="640" cy="505" r="14" fill="#d4f27a"/><circle cx="672" cy="505" r="14" fill="#7cc15a"/><circle cx="704" cy="505" r="14" fill="#fff8ec"/></svg>
