<svg xmlns="http://www.w3.org/2000/svg" viewBox="0 0 800 600" width="800" height="600"><defs><linearGradient id="bg" x1="0" y1="0" x2="1" y2="1"><stop offset="0" stop-color="#26344f"/><stop offset="1" stop-color="#0d1320"/></linearGradient><linearGradient id="scr" x1="0" y1="0" x2="0" y2="1"><stop offset="0" stop-color="#2b3a5c"/><stop offset="1" stop-color="#16203a"/></linearGradient><filter id="sh" x="-20%" y="-20%" width="140%" height="150%"><feDropShadow dx="0" dy="14" stdDeviation="14" flood-color="#06140a" flood-opacity=".35"/></filter></defs>
<rect width="800" height="600" fill="url(#bg)"/>
<g filter="url(#sh)"><path d="M180 380h380l40 50H140z" fill="#9aa4b8"/><rect x="200" y="160" width="340" height="220" rx="12" fill="#1c2233"/></g>
<rect x="214" y="174" width="312" height="192" rx="6" fill="url(#scr)"/>
<path d="M260 320l60-60 50 40 70-80 60 50" stroke="#d4f27a" stroke-width="6" fill="none" stroke-linejoin="round"/>
<g filter="url(#sh)"><rect x="580" y="200" width="110" height="210" rx="18" fill="#0b0b0b"/></g><rect x="588" y="210" width="94" height="190" rx="12" fill="#7cc15a"/>
<text x="635" y="320" font-family="Oswald, 'Arial Narrow', Arial, sans-serif" font-size="26" fill="#0e2616" font-weight="700" text-anchor="middle">PRO</text>
<g transform="translate(110 90)"><circle r="62" fill="#f2b631"/><text x="0" y="14" font-family="Oswald, 'Arial Narrow', Arial, sans-serif" font-size="40" fill="#1c2233" font-weight="700" text-anchor="middle">9.2</text></g>
<text x="400" y="510" font-family="Oswald, 'Arial Narrow', Arial, sans-serif" font-size="50" fill="#fff" font-weight="700" text-anchor="middle" letter-spacing="4">HONEST REVIEW</text>
<text x="400" y="550" font-family="Outfit, 'Segoe UI', Arial, sans-serif" font-size="20" fill="#9db5a4" font-weight="600" text-anchor="middle">Is it worth Rs. 1,49,999 in Nepal?</text></svg>
