<svg xmlns="http://www.w3.org/2000/svg" viewBox="0 0 800 600" width="800" height="600"><defs><linearGradient id="bg" x1="0" y1="0" x2="1" y2="1"><stop offset="0" stop-color="#c0392b"/><stop offset="1" stop-color="#6e1a10"/></linearGradient></defs>
<rect width="800" height="600" fill="url(#bg)"/>
<ellipse cx="330" cy="360" rx="210" ry="70" fill="#000" opacity=".25"/>
<ellipse cx="330" cy="330" rx="200" ry="70" fill="#fff"/><ellipse cx="330" cy="325" rx="150" ry="48" fill="#f4e3c3"/>
<path d="M399 330c0-24 12-36 26-36s26 12 26 36z" fill="#fffaf0" stroke="#d9c29a" stroke-width="3"/><path d="M415 302q10-10 20 0" stroke="#d9c29a" stroke-width="3" fill="none"/><path d="M363.23153117657967 351.89128150910483c0-24 12-36 26-36s26 12 26 36z" fill="#fffaf0" stroke="#d9c29a" stroke-width="3"/><path d="M379.23153117657967 323.89128150910483q10-10 20 0" stroke="#d9c29a" stroke-width="3" fill="none"/><path d="M282.86051127415016 357.2979815410911c0-24 12-36 26-36s26 12 26 36z" fill="#fffaf0" stroke="#d9c29a" stroke-width="3"/><path d="M298.86051127415016 329.2979815410911q10-10 20 0" stroke="#d9c29a" stroke-width="3" fill="none"/><path d="M218.40795754927018 342.1487446952916c0-24 12-36 26-36s26 12 26 36z" fill="#fffaf0" stroke="#d9c29a" stroke-width="3"/><path d="M234.40795754927018 314.1487446952916q10-10 20 0" stroke="#d9c29a" stroke-width="3" fill="none"/><path d="M218.40795754927018 317.8512553047084c0-24 12-36 26-36s26 12 26 36z" fill="#fffaf0" stroke="#d9c29a" stroke-width="3"/><path d="M234.40795754927018 289.8512553047084q10-10 20 0" stroke="#d9c29a" stroke-width="3" fill="none"/><path d="M282.8605112741501 302.7020184589089c0-24 12-36 26-36s26 12 26 36z" fill="#fffaf0" stroke="#d9c29a" stroke-width="3"/><path d="M298.8605112741501 274.7020184589089q10-10 20 0" stroke="#d9c29a" stroke-width="3" fill="none"/><path d="M363.23153117657967 308.10871849089517c0-24 12-36 26-36s26 12 26 36z" fill="#fffaf0" stroke="#d9c29a" stroke-width="3"/><path d="M379.23153117657967 280.10871849089517q10-10 20 0" stroke="#d9c29a" stroke-width="3" fill="none"/>
<circle cx="330" cy="320" r="22" fill="#e02424"/>
<path d="M200 170c10-30-10-40 0-70M260 160c10-30-10-40 0-70M320 170c10-30-10-40 0-70" stroke="#fff" stroke-width="5" fill="none" opacity=".5" stroke-linecap="round"/>
<text x="640" y="200" font-family="Oswald, 'Arial Narrow', Arial, sans-serif" font-size="70" fill="#fff" font-weight="700" text-anchor="middle">HOT</text><text x="640" y="270" font-family="Oswald, 'Arial Narrow', Arial, sans-serif" font-size="70" fill="#f2b631" font-weight="700" text-anchor="middle">MOMO</text>
<rect x="555" y="320" width="170" height="60" rx="30" fill="#f2b631"/><text x="640" y="360" font-family="Oswald, 'Arial Narrow', Arial, sans-serif" font-size="24" fill="#3a1204" font-weight="700" text-anchor="middle">ORDER NOW</text>
<text x="640" y="420" font-family="Outfit, 'Segoe UI', Arial, sans-serif" font-size="18" fill="#ffd6c2" font-weight="600" text-anchor="middle">Free delivery · Lalitpur</text></svg>
